<svg xmlns="http://www.w3.org/2000/svg" viewBox="0 0 1080 1920" role="img" aria-label="dabwith.me · Shatterbox · Android splash">
  <title>DABWITH.ME · Shatterbox · Android splash 1080×1920</title>
  
  <defs>
    <linearGradient id="sandbg_gA" x1="0" y1="0" x2="100%" y2="100%">
      <stop offset="0" stop-color="oklch(78% 0.18 70)" stop-opacity="0.55"/>
      <stop offset="1" stop-color="oklch(40% 0.10 55)" stop-opacity="0"/>
    </linearGradient>
    <linearGradient id="sandbg_gB" x1="0" y1="0" x2="100%" y2="0">
      <stop offset="0" stop-color="oklch(70% 0.18 65)" stop-opacity="0.40"/>
      <stop offset="1" stop-color="oklch(70% 0.18 65)" stop-opacity="0"/>
    </linearGradient>
  </defs>
  <rect x="0" y="0" width="1080" height="1920" fill="oklch(15% 0.014 60)"/>
  <polygon points="0,0 504.0,51.2 144.0,332.8 0,230.4" fill="url(#sandbg_gA)"/>
  <polygon points="504.0,51.2 1080.0,0 1080.0,179.20000000000002 630.0,230.4" fill="url(#sandbg_gB)" opacity="0.7"/>
  <polygon points="144.0,332.8 630.0,230.4 360.0,665.6" fill="oklch(58% 0.16 60)" opacity="0.18"/>
  <polygon points="630.0,230.4 1080.0,179.20000000000002 864.0,665.6 504.0,640.0" fill="oklch(46% 0.12 58)" opacity="0.22"/>
  <polygon points="0,230.4 144.0,332.8 0,665.6" fill="oklch(38% 0.10 55)" opacity="0.35"/>
  <polygon points="0,665.6 360.0,665.6 504.0,640.0 396.0,1049.6 0,1100.8" fill="oklch(30% 0.07 55)" opacity="0.5"/>
  <polygon points="504.0,640.0 864.0,665.6 1080.0,179.20000000000002 1080.0,1203.2 684.0,1382.4" fill="oklch(22% 0.05 55)" opacity="0.55"/>
  <polygon points="0,1100.8 396.0,1049.6 684.0,1382.4 360.0,1920.0 0,1920.0" fill="oklch(18% 0.04 55)" opacity="0.7"/>
  <polygon points="684.0,1382.4 1080.0,1203.2 1080.0,1920.0 360.0,1920.0" fill="oklch(15% 0.03 55)" opacity="0.75"/>
  <g stroke="oklch(85% 0.14 70)" stroke-width="0.6" fill="none" opacity="0.30">
    <path d="M 0 230.4 L 504.0 51.2"/>
    <path d="M 144.0 332.8 L 630.0 230.4"/>
    <path d="M 0 665.6 L 360.0 665.6 L 504.0 640.0 L 864.0 665.6 L 1080.0 179.20000000000002"/>
    <path d="M 396.0 1049.6 L 684.0 1382.4 L 1080.0 1203.2"/>
    <path d="M 0 1100.8 L 396.0 1049.6"/>
    <path d="M 684.0 1382.4 L 360.0 1920.0"/>
    <path d="M 630.0 230.4 L 864.0 665.6"/>
  </g>
  <defs>
    <radialGradient id="sand_halo" cx="50%" cy="50%" r="50%">
      <stop offset="0"    stop-color="oklch(75% 0.18 68)" stop-opacity="0.55"/>
      <stop offset="0.65" stop-color="oklch(75% 0.18 68)" stop-opacity="0"/>
    </radialGradient>
    <radialGradient id="sand_body" cx="62%" cy="70%" r="68%">
      <stop offset="0"   stop-color="oklch(82% 0.20 75)"/>
      <stop offset="0.4" stop-color="oklch(64% 0.18 60)"/>
      <stop offset="1"   stop-color="oklch(28% 0.07 50)"/>
    </radialGradient>
    <radialGradient id="sand_hi" cx="34%" cy="24%" r="34%">
      <stop offset="0" stop-color="oklch(99% 0.04 90)" stop-opacity="0.95"/>
      <stop offset="1" stop-color="oklch(99% 0.04 90)" stop-opacity="0"/>
    </radialGradient>
    <radialGradient id="sand_inner" cx="50%" cy="100%" r="70%">
      <stop offset="0"   stop-color="oklch(15% 0.04 50)" stop-opacity="0.55"/>
      <stop offset="0.6" stop-color="oklch(15% 0.04 50)" stop-opacity="0.15"/>
      <stop offset="1"   stop-color="oklch(15% 0.04 50)" stop-opacity="0"/>
    </radialGradient>
    <radialGradient id="sand_cheek">
      <stop offset="0"   stop-color="oklch(82% 0.20 70)" stop-opacity="0.70"/>
      <stop offset="0.7" stop-color="oklch(82% 0.20 70)" stop-opacity="0"/>
    </radialGradient>
    <radialGradient id="sand_eyehi" cx="40%" cy="30%" r="30%">
      <stop offset="0" stop-color="oklch(85% 0.16 70)" stop-opacity="0.95"/>
      <stop offset="1" stop-color="oklch(85% 0.16 70)" stop-opacity="0"/>
    </radialGradient>
    <linearGradient id="sand_specA" x1="20%" y1="0%" x2="50%" y2="100%">
      <stop offset="0" stop-color="oklch(99% 0.04 88)" stop-opacity="0.55"/>
      <stop offset="1" stop-color="oklch(99% 0.04 88)" stop-opacity="0"/>
    </linearGradient>
    <filter id="sand_blur" x="-30%" y="-30%" width="160%" height="160%">
      <feGaussianBlur stdDeviation="2"/>
    </filter>
  </defs>
  <defs><clipPath id="sand_clip"><circle cx="540.0" cy="844.8" r="216.0"/></clipPath></defs>
  
  <circle cx="540.0" cy="844.8" r="259.2" fill="url(#sand_halo)"/>
  <circle cx="540.0" cy="844.8" r="216.0" fill="url(#sand_body)"/>
  <circle cx="540.0" cy="844.8" r="216.0" fill="url(#sand_hi)"/>
  <circle cx="540.0" cy="844.8" r="216.0" fill="url(#sand_inner)"/>
  <g clip-path="url(#sand_clip)">
    <polygon points="390.96000000000004,674.16 481.68,648.24 630.72,1028.3999999999999 561.6,1045.68" fill="url(#sand_specA)" opacity="0.55"/>
    <ellipse cx="406.08000000000004" cy="905.28" rx="36.720000000000006" ry="23.76" fill="url(#sand_cheek)" filter="url(#sand_blur)"/>
    <ellipse cx="673.92" cy="905.28" rx="36.720000000000006" ry="23.76" fill="url(#sand_cheek)" filter="url(#sand_blur)"/>
  </g>
  <ellipse cx="489.24" cy="861.0" rx="30.240000000000002" ry="38.879999999999995" fill="oklch(15% 0.04 50)"/>
  <ellipse cx="590.76" cy="861.0" rx="30.240000000000002" ry="38.879999999999995" fill="oklch(15% 0.04 50)"/>
  <ellipse cx="480.6" cy="842.64" rx="9.504" ry="12.959999999999999" fill="url(#sand_eyehi)"/>
  <ellipse cx="582.12" cy="842.64" rx="9.504" ry="12.959999999999999" fill="url(#sand_eyehi)"/>
  <circle cx="540.0" cy="844.8" r="216.0" fill="none" stroke="oklch(75% 0.18 68)" stroke-opacity="0.5" stroke-width="2.16"/>
  <text x="540.0" y="1260.8" text-anchor="middle"
        font-family="'SF Pro Display','SF Pro','Helvetica Neue Condensed',Helvetica,Arial,sans-serif"
        font-weight="900" font-stretch="condensed"
        font-size="118.8" letter-spacing="1.2959999999999998"
        fill="oklch(96% 0.024 78)">DABWITH<tspan fill="oklch(75% 0.18 68)">.ME</tspan></text>
</svg>
